<svg xmlns="http://www.w3.org/2000/svg" width="120.006" height="120" viewBox="0 0 120.006 120"><defs><style>.a{fill:#d14a3b;}</style></defs><g transform="translate(-7.986 -8)"><path class="a" d="M352.6,115.563a9.67,9.67,0,0,0,8.343-4.816,1.927,1.927,0,0,0,0-1.931,9.634,9.634,0,0,0-16.686,0,1.927,1.927,0,0,0,0,1.931,9.67,9.67,0,0,0,8.343,4.816Zm0-7.709a5.8,5.8,0,0,1,4.306,1.927,5.774,5.774,0,0,1-8.612,0A5.8,5.8,0,0,1,352.6,107.854Z" transform="translate(-246.844 -70.975)"/><path class="a" d="M117.56,112.168c-1.359-1.114-2.964-2.3-4.783-3.547.11-.065.22-.129.329-.2,8.9-5.5,14.885-16.758,14.885-28.009,0-10.51-4.141-23.1-13.393-27.551-3.826-1.839-9.712-2.793-17.443,1.443a38.643,38.643,0,0,0-2.549-9.683c-2-5.479-3.574-9.806.062-17.078l-3.7-1.851c-4.433,8.866-2.306,14.7-.249,20.346,1.2,3.282,2.415,6.63,2.405,10.849-.1.075-.2.145-.306.222-5.679-4.224-10.528-5.71-14.483-5.8V39.035a2.069,2.069,0,0,0-.414-1.241l-12-16V10.069A2.069,2.069,0,0,0,63.853,8H26.61a2.069,2.069,0,0,0-2.069,2.069V21.794l-12,16a2.1,2.1,0,0,0-.414,1.241v44.78a8.411,8.411,0,0,0-3.763,5.011c-.874,3.015-.659,7.4,5.33,11.156a28.088,28.088,0,0,0,4.371,2.184c-6.133,3.334-6.867,7.423-6.845,9.277.045,3.789,3.005,7.086,7.542,8.4a7.415,7.415,0,0,0,2.073.284c3.728,0,8.331-2.522,13.72-7.526,1.62-1.5,3.1-3.036,4.343-4.389a11.624,11.624,0,0,0,1.909,5.132c2.512,3.721,7.306,6.387,16.028,8.915,8.383,2.43,24.227,4.733,37.671,5.478,3.131.173,6.075.259,8.782.259a82.369,82.369,0,0,0,9.828-.5c6.354-.784,9.692-2.457,10.505-5.263S122.509,116.228,117.56,112.168Zm-30.12-49.34a6.21,6.21,0,0,0,10.756,0l3.582,2.072a10.348,10.348,0,0,1-17.92,0ZM74.2,39.725V51.742a15.768,15.768,0,0,0-3.159,1.122c-9.252,4.447-13.393,17.041-13.393,27.551a32.624,32.624,0,0,0,.259,4.071,23.819,23.819,0,0,0-4.4-.122V39.726L63.853,25.933ZM27.645,24.552h32.07L50.4,36.966H18.334ZM16.265,41.1h33.1V53.518h-33.1ZM39.12,101.63c-5.381,6.795-14.727,15.538-19.206,14.24-2.745-.8-4.533-2.553-4.556-4.477-.026-2.192,2.379-5.3,9.211-7.461a2.069,2.069,0,0,0-.048-3.96c-9.36-2.713-13.345-5.982-12.181-9.993.692-2.388,2.785-3.578,6.34-3.578a34.953,34.953,0,0,1,9.3,1.648,2.069,2.069,0,0,0,2.157-3.321c-4.62-5.476-4.989-9.391-3.794-11.23,1.048-1.614,3.5-2.142,6.243-1.347,4.479,1.3,7.7,13.684,8.615,22.3ZM33.737,68.177c-4.536-1.315-8.8-.111-10.865,3.067-1.009,1.554-2.576,5.4.823,11.5a28.141,28.141,0,0,0-4.862-.491h-.078a17.408,17.408,0,0,0-2.489.17V57.656h33.1v27.6c-.161.063-.321.127-.478.2a11.62,11.62,0,0,0-4.358,3.308c-.325-1.805-.757-3.889-1.321-6.024C40.967,74.248,37.78,69.348,33.737,68.177Zm85.912,52.9c-.289,1-5.486,3.6-24.913,2.528-3.26-.181-6.661-.454-10.055-.8l2.02-6.971-3.974-1.152-2.221,7.664a155.969,155.969,0,0,1-22.518-4.063c-7.611-2.206-11.852-4.444-13.751-7.256-1.733-2.566-1.763-6.106-.1-11.838s3.58-8.707,6.417-9.949a10.974,10.974,0,0,1,4.436-.794A41.722,41.722,0,0,1,66.05,90.467c.623.181,1.285.388,1.976.613l-5.173,17.848,3.974,1.152,5.107-17.62a224.95,224.95,0,0,1,28.013,13.162c2.21,1.233,4.181,2.389,5.941,3.471l-2.138,7.38,3.974,1.152,1.8-6.207C118.135,117.168,119.871,120.311,119.649,121.081Z"/></g></svg>