<svg xmlns="http://www.w3.org/2000/svg" width="100" height="120" viewBox="0 0 100 120"><defs><style>.a{fill:#d14a3b;}</style></defs><g transform="translate(-56 -16)"><path class="a" d="M103.459,16.632A2,2,0,0,0,102,16H58a2,2,0,0,0-2,2.13l6,91.934V126a10.011,10.011,0,0,0,10,10h74a10.011,10.011,0,0,0,10-10V98a10.013,10.013,0,0,0-6-9.162V82a22.374,22.374,0,0,0-7.668-17.117,25.7,25.7,0,0,0-7.659-4.766,1.929,1.929,0,0,0-2.5,1.068,10,10,0,0,1-3.913,3.5c-2.9,1.666-8.383,3.653-18.007,3.653a36.465,36.465,0,0,0-9.6,1.122L104,18.131A2,2,0,0,0,103.459,16.632ZM99.865,20,99.6,24H60.4l-.261-4ZM88,124V100h64v24Zm-12,0v-2a2,2,0,0,1,2-2h4a2,2,0,0,1,2,2v2Zm8-7.656A5.972,5.972,0,0,0,82,116H78a6.007,6.007,0,0,0-6,6v2H66V112H84ZM66.344,128H84.2a9.96,9.96,0,0,0,1.8,4H72a6.01,6.01,0,0,1-5.656-4ZM146,132H94a6.01,6.01,0,0,1-5.656-4h63.312A6.01,6.01,0,0,1,146,132Zm5.656-36H88.344A6.01,6.01,0,0,1,94,92h52A6.01,6.01,0,0,1,151.656,96ZM94,88V84h52v4Zm36.716-20.125a15.657,15.657,0,0,0,4-3.367,23.073,23.073,0,0,1,5.057,3.453A18.118,18.118,0,0,1,145.905,80H94.11a6.966,6.966,0,0,1,1.614-3.306c2.475-2.853,7.5-4.361,14.529-4.361C118.975,72.333,125.859,70.833,130.716,67.875Zm-38.1,6.3a10.865,10.865,0,0,0-2.6,7.567A2.008,2.008,0,0,0,90,82v6.838A10.013,10.013,0,0,0,84,98v10H65.875L60.656,28H99.344L96.535,71.066a13.355,13.355,0,0,0-3.918,3.105Z" transform="translate(0 0)"/><path class="a" d="M274.8,369.927a30.851,30.851,0,0,0-21.466,0c-4.642,1.99-5.335,4.68-5.335,6.107s.693,4.118,5.335,6.107a30.851,30.851,0,0,0,21.466,0c4.642-1.989,5.335-4.68,5.335-6.107S279.444,371.917,274.8,369.927Zm-10.733,10.124c-7.476,0-12.051-2.6-12.051-4.017s4.575-4.017,12.051-4.017,12.051,2.6,12.051,4.017S271.544,380.051,264.068,380.051Z" transform="translate(-144.097 -264.137)"/><path class="a" d="M122.111,80h-24.1A2.009,2.009,0,0,0,96,82.009V94.06a2.009,2.009,0,0,0,2.009,2.009h24.1a2.009,2.009,0,0,0,2.009-2.009V82.009A2.009,2.009,0,0,0,122.111,80ZM120.1,92.051H100.017V84.017H120.1Z" transform="translate(-29.957 -47.932)"/><path class="a" d="M130.077,160H114.009a2.009,2.009,0,1,0,0,4.017h16.068a2.009,2.009,0,1,0,0-4.017Z" transform="translate(-41.94 -108.005)"/></g></svg>