<svg xmlns="http://www.w3.org/2000/svg" width="50.5" height="36" viewBox="0 0 50.5 36"><defs><style>.a{fill:#65924f;}</style></defs><path class="a" d="M35.318,6.641v-.6A1.58,1.58,0,0,0,33.74,4.461H2.577A1.58,1.58,0,0,0,1,6.042V34.664a1.58,1.58,0,0,0,1.578,1.581H9.088a5.748,5.748,0,0,0,11.079,0H36.385a5.748,5.748,0,0,0,11.079,0h2.091a1.48,1.48,0,0,0,.183-.037,1.48,1.48,0,0,0,.183.037A1.58,1.58,0,0,0,51.5,34.664v-12.1C51.5,14.225,44.373,7.364,35.318,6.641Zm12.964,14.87H42.356c-1.512-.415-1.818-3.128-1.818-7.353V11.215A12.907,12.907,0,0,1,48.282,21.511ZM38.433,10.423v3.734c0,4.582.273,8.752,3.585,9.44a1.06,1.06,0,0,0,.214.022h6.111v9.464h-.879a5.748,5.748,0,0,0-11.079,0H20.167a5.759,5.759,0,0,0-1.181-2.19H33.74a1.047,1.047,0,0,0,.95-.615,1.554,1.554,0,0,0,.628-1.23V9.809A16.163,16.163,0,0,1,38.433,10.423ZM32.162,28.785H4.155V7.623H32.162V28.785ZM4.155,30.893H10.27a5.758,5.758,0,0,0-1.181,2.19H4.155ZM14.628,37.3a2.635,2.635,0,1,1,2.629-2.64s0,0,0,.005,0,0,0,.005A2.634,2.634,0,0,1,14.628,37.3Zm27.3,0a2.635,2.635,0,1,1,2.63-2.635A2.635,2.635,0,0,1,41.924,37.3Z" transform="translate(-0.999 -4.461)"/></svg>