<svg xmlns="http://www.w3.org/2000/svg" width="120" height="120" viewBox="0 0 120 120"><defs><style>.a,.b{fill:none;}.b{stroke:#d14a3b;stroke-linecap:round;stroke-miterlimit:10;stroke-width:4px;}.c{fill:#d14a3b;}</style></defs><g transform="translate(-0.209 -0.209)"><rect class="a" width="120" height="120" transform="translate(0.209 0.209)"/><path class="b" d="M115.474,66.987l-9.183,8.8,1.036,12.682a3.645,3.645,0,0,1-2.62,3.8L92.484,95.8l-4.971,11.709a3.636,3.636,0,0,1-4.087,2.148L70.953,107.1l-9.843,8.056a3.65,3.65,0,0,1-4.619,0L46.65,107.1l-12.475,2.555a3.634,3.634,0,0,1-4.087-2.148L25.117,95.8,12.894,92.275a3.652,3.652,0,0,1-2.62-3.8L11.31,75.792l-9.183-8.8a3.642,3.642,0,0,1-.559-4.581L8.381,51.66,4.335,39.594a3.648,3.648,0,0,1,1.64-4.313L17,28.923l2.028-12.557A3.644,3.644,0,0,1,22.48,13.3l12.714-.5,7.63-10.18a3.652,3.652,0,0,1,4.484-1.1L58.8,6.985l11.49-5.467a3.644,3.644,0,0,1,4.482,1.1L82.4,12.8l12.714.5a3.658,3.658,0,0,1,3.458,3.061L100.6,28.92l11.025,6.358a3.654,3.654,0,0,1,1.64,4.313l-4.044,12.066L116.035,62.4A3.648,3.648,0,0,1,115.474,66.987Z" transform="translate(1.411 1.637)"/><g transform="translate(37.272 33.891)"><path class="c" d="M16.052,34.548c-.431-1.37-.576-2.163-.576-7.355s.147-5.985.576-7.355c1.154-3.389,4.183-5.551,8.292-5.551s7.138,2.163,8.29,5.551c.434,1.37.578,2.163.578,7.355s-.147,5.985-.578,7.355c-1.154,3.389-4.181,5.551-8.29,5.551S17.205,37.936,16.052,34.548Zm12.184-1.154c.217-.72.361-1.732.361-6.2s-.147-5.479-.361-6.2a3.812,3.812,0,0,0-3.892-2.524,3.809,3.809,0,0,0-3.892,2.524c-.217.72-.361,1.732-.361,6.2s.147,5.479.361,6.2a3.812,3.812,0,0,0,3.892,2.524A3.809,3.809,0,0,0,28.236,33.394Zm21.632-18.6a1.171,1.171,0,0,1,1.154-.72h3.461c.434,0,.576.361.361.72L26.362,63.966a1.14,1.14,0,0,1-1.081.72H21.82a.456.456,0,0,1-.434-.72ZM43.018,51.638c0-5.192.145-5.985.576-7.358,1.154-3.389,4.181-5.551,8.292-5.551s7.138,2.163,8.29,5.551c.434,1.37.576,2.163.576,7.358s-.145,5.982-.576,7.353c-1.154,3.389-4.181,5.554-8.29,5.554s-7.138-2.163-8.292-5.554C43.163,57.62,43.018,56.825,43.018,51.638Zm8.87,8.723a3.809,3.809,0,0,0,3.892-2.524c.217-.72.359-1.732.359-6.2s-.145-5.479-.359-6.2a3.812,3.812,0,0,0-3.892-2.524,3.812,3.812,0,0,0-3.894,2.524c-.217.723-.359,1.732-.359,6.2s.145,5.479.359,6.2A3.81,3.81,0,0,0,51.888,60.361Z" transform="translate(-15.476 -14.072)"/></g></g></svg>