<svg xmlns="http://www.w3.org/2000/svg" width="50.5" height="56.5" viewBox="0 0 50.5 56.5"><defs><style>.a{fill:#65924f;}</style></defs><g transform="translate(-3.52 -1.999)"><path class="a" d="M22.08,12.485H8.461a1.9,1.9,0,1,0,0,3.784H22.08a1.9,1.9,0,0,0,0-3.784Z" transform="translate(2.91 10.658)"/><path class="a" d="M16.851,16.69h-8.5a1.882,1.882,0,1,0,0,3.764h8.5a1.882,1.882,0,1,0,0-3.764Z" transform="translate(3.02 14.946)"/><path class="a" d="M54.02,11.807a1.834,1.834,0,0,0-.567-1.332l-7.931-7.93a1.905,1.905,0,0,0-2.671,0L38.2,7.186H8.821a5.314,5.314,0,0,0-5.3,5.287v40.74a5.294,5.294,0,0,0,5.3,5.287H37.753a5.274,5.274,0,0,0,5.281-5.287V23.531l10.42-10.392A1.894,1.894,0,0,0,54.02,11.807ZM37.834,54.726H8.821A1.515,1.515,0,0,1,7.3,53.213V12.473A1.536,1.536,0,0,1,8.821,10.96H34.415l-5.159,5.166a1.853,1.853,0,0,0-.425,1.8v7.446a1.859,1.859,0,0,0,1.882,1.877h7.81a1.906,1.906,0,0,0,.749-.141v26.11a1.515,1.515,0,0,1-1.517,1.513Zm0-31.236h-5.24V18.143L44.187,6.581l5.26,5.266Z" transform="translate(0 0)"/></g></svg>