<svg xmlns="http://www.w3.org/2000/svg" width="50.5" height="50.5" viewBox="0 0 50.5 50.5"><defs><style>.a{fill:#65924f;}</style></defs><path class="a" d="M114.5,114.5a45.99,45.99,0,0,0-.289-5.287c-.237-1.433-2.223-3.327-10.665-6.431-8.311-3.051-7.8-1.565-7.8-7.18,0-3.643,1.854-1.526,3.038-8.443.46-2.722.829-.907,1.828-5.274.526-2.288-.355-2.459-.25-3.551s.21-2.065.408-4.3C101.007,71.273,98.443,64,89.25,64S77.493,71.273,77.743,74.047c.2,2.223.3,3.209.408,4.3s-.776,1.262-.25,3.551c1,4.353,1.368,2.538,1.828,5.274,1.184,6.917,3.038,4.8,3.038,8.443,0,5.629.513,4.143-7.8,7.18-8.443,3.09-10.442,5-10.666,6.431A43.714,43.714,0,0,0,64,114.5h50.5Z" transform="translate(-64 -64)"/></svg>