<svg xmlns="http://www.w3.org/2000/svg" width="123.093" height="123" viewBox="0 0 123.093 123"><defs><style>.a{fill:none;stroke:#d14a3b;stroke-linejoin:round;stroke-width:3px;}</style></defs><g transform="translate(-0.026 -0.024)"><path class="a" d="M94.768,36A44.384,44.384,0,1,1,6,36" transform="translate(4.07 33.07)"/><path class="a" d="M105.378,36c0,28.97-23.142,52.454-51.689,52.454S2,64.97,2,36Z" transform="translate(0 33.07)"/><circle class="a" cx="2" cy="2" r="2" transform="translate(22.253 77.525)"/><circle class="a" cx="2" cy="2" r="2" transform="translate(38.044 97.266)"/><circle class="a" cx="2" cy="2" r="2" transform="translate(51.862 77.525)"/><circle class="a" cx="2" cy="2" r="2" transform="translate(65.68 97.266)"/><circle class="a" cx="2" cy="2" r="2" transform="translate(81.471 77.525)"/><path class="a" d="M29.517,58.38A34.3,34.3,0,1,1,76.423,79.564" transform="translate(24.92 11.541)"/><path class="a" d="M45,25.192V17.606A20.679,20.679,0,0,1,51.052,3h0" transform="translate(42.595 1.017)"/><path class="a" d="M49.1,6.035h0a13.8,13.8,0,0,1,4.035,9.744v2.36h-2.36A13.8,13.8,0,0,1,41.035,14.1h0A13.8,13.8,0,0,1,37,4.36V2h2.36A13.8,13.8,0,0,1,49.1,6.035Z" transform="translate(34.579)"/><path class="a" d="M45,18A26.227,26.227,0,0,1,71.227,44.227" transform="translate(42.221 15.756)"/><circle class="a" cx="26.5" cy="26.5" r="26.5" transform="translate(1.526 1.524)"/><circle class="a" cx="18" cy="18" r="18" transform="translate(10.526 10.524)"/><line class="a" y2="36" transform="translate(28.186 10.524)"/><line class="a" x2="36" transform="translate(10.526 28.185)"/><line class="a" y1="24" x2="24" transform="translate(16.526 16.524)"/><line class="a" x2="24" y2="24" transform="translate(16.526 16.524)"/></g></svg>