<svg xmlns="http://www.w3.org/2000/svg" width="122.56" height="123" viewBox="0 0 122.56 123"><defs><style>.a{fill:none;stroke:#d14a3b;stroke-linejoin:round;stroke-width:3px;}</style></defs><g transform="translate(-0.5 -0.5)"><path class="a" d="M44.2,34.156A9.746,9.746,0,0,1,44,32.13a10.13,10.13,0,0,1,20.26,0,9.178,9.178,0,0,1-.2,2.026" transform="translate(41.092 19.942)"/><path class="a" d="M2,36H121.56c0,29.092-23.2,52.676-51.809,52.676H53.809C25.2,88.676,2,65.092,2,36Z" transform="translate(0 33.324)"/><path class="a" d="M41.026,44.208A10.009,10.009,0,0,1,39,38.13a10.13,10.13,0,1,1,20.26,0,10.008,10.008,0,0,1-2.026,6.078" transform="translate(36.484 25.896)"/><path class="a" d="M51.026,44.208A10.008,10.008,0,0,1,49,38.13a10.13,10.13,0,1,1,18.234,6.078" transform="translate(46.222 25.896)"/><path class="a" d="M54,29.005a13.027,13.027,0,0,1,2.026-2.573h0a13.858,13.858,0,0,1,9.786-4.052h2.37v2.37a13.858,13.858,0,0,1-4.052,9.786h0a14.182,14.182,0,0,1-2.938,2.229" transform="translate(51.352 20.309)"/><path class="a" d="M38.442,48.442,4,14V33.267a41.614,41.614,0,0,0,8.59,25.3" transform="translate(2.052 11.819)"/><path class="a" d="M8,18v9.988A34.583,34.583,0,0,0,18.129,52.441h0c.709.709,1.438,1.378,2.208,2.026" transform="translate(6.156 15.822)"/><path class="a" d="M36,37.4a10.008,10.008,0,0,0,6.929-2.755" transform="translate(33.683 32.62)"/><path class="a" d="M60.643,42.338a10.13,10.13,0,0,0-5.713-5.409,8.469,8.469,0,0,0,.486-2.695,8.1,8.1,0,0,0-6.422-7.922,7.982,7.982,0,0,0,.344-2.208,8.1,8.1,0,0,0-16.208,0,7.982,7.982,0,0,0,.344,2.208,8.1,8.1,0,0,0-6.422,7.922,8.469,8.469,0,0,0,.486,2.695A10.13,10.13,0,0,0,31.1,56.52h20.26" transform="translate(18.579 13.818)"/><path class="a" d="M76.238,36.338a10.13,10.13,0,0,0-5.713-5.409,8.469,8.469,0,0,0,.486-2.695,8.1,8.1,0,0,0-6.422-7.922,7.983,7.983,0,0,0,.344-2.208,8.1,8.1,0,1,0-16.208,0,7.982,7.982,0,0,0,.344,2.208,8.1,8.1,0,0,0-6.422,7.922,8.469,8.469,0,0,0,.486,2.695,10.13,10.13,0,0,0-5.713,5.409" transform="translate(34.341 8.208)"/><line class="a" y1="26" transform="translate(59.813 44.082)"/><line class="a" y1="6" x2="6" transform="translate(59.763 48.149)"/><line class="a" x1="6" y1="6" transform="translate(53.866 56.041)"/><line class="a" x2="120" transform="translate(1.78 77.795)"/><path class="a" d="M15.052,21.156h0A13.858,13.858,0,0,1,11,11.37V9h2.37a13.858,13.858,0,0,1,9.786,4.052h0a13.858,13.858,0,0,1,4.052,9.786v2.37h-2.37a13.858,13.858,0,0,1-9.786-4.052Z" transform="translate(8.885 7.182)"/><path class="a" d="M38.156,14.156h0A13.858,13.858,0,0,0,42.208,4.37V2h-2.37a13.858,13.858,0,0,0-9.786,4.052h0A13.858,13.858,0,0,0,26,15.838v2.37h2.37a13.858,13.858,0,0,0,9.786-4.052Z" transform="translate(23.701)"/></g></svg>