<svg xmlns="http://www.w3.org/2000/svg" width="50.5" height="54" viewBox="0 0 50.5 54"><defs><style>.a{fill:#65924f;}</style></defs><g transform="translate(-12.749)"><path class="a" d="M31.129,34.486l-.384,3.63a1.039,1.039,0,0,0,1.033,1.148H42.766A1.039,1.039,0,0,0,43.8,38.116l-.384-3.63H57.1a3.867,3.867,0,0,0,3.863-3.862V3.862A3.867,3.867,0,0,0,57.1,0H16.612a3.867,3.867,0,0,0-3.863,3.862V30.624a3.867,3.867,0,0,0,3.863,3.862H31.129Zm10.481,2.7H32.933l.286-2.7h8.105Zm-25-35.109H57.1a1.786,1.786,0,0,1,1.785,1.784V27.422H14.827V3.862A1.786,1.786,0,0,1,16.612,2.078ZM14.827,30.624V29.5H58.885v1.124A1.786,1.786,0,0,1,57.1,32.408H16.612A1.786,1.786,0,0,1,14.827,30.624Z"/><path class="a" d="M80.333,299.509a1.038,1.038,0,0,0,.034-1.018l-2.053-3.947a1.039,1.039,0,0,0-.922-.56H42.84a1.039,1.039,0,0,0-.922.56l-2.053,3.947a1.039,1.039,0,0,0,.922,1.518H79.445A1.039,1.039,0,0,0,80.333,299.509ZM42.5,297.931l.972-1.87h33.29l.972,1.87Z" transform="translate(-23.259 -253.28)"/><path class="a" d="M308.259,350.982H306.6a4.368,4.368,0,0,0-4.363,4.363,1.039,1.039,0,0,0,1.039,1.039h8.31a1.039,1.039,0,0,0,1.039-1.039A4.367,4.367,0,0,0,308.259,350.982Zm-3.7,3.324a2.288,2.288,0,0,1,2.035-1.246h1.662a2.288,2.288,0,0,1,2.035,1.246Z" transform="translate(-249.372 -302.383)"/></g></svg>