<svg xmlns="http://www.w3.org/2000/svg" width="120" height="120" viewBox="0 0 120 120"><defs><style>.a{fill:#d14a3b;}</style></defs><g transform="translate(-16 -16)"><path class="a" d="M213.58,280.4a1.993,1.993,0,0,0,2.818-2.818l-1-1a1.993,1.993,0,1,0-2.818,2.818Z" transform="translate(-146.992 -194.99)"/><path class="a" d="M336.583,231.4l1,1a1.993,1.993,0,0,0,2.818-2.818l-1-1a1.993,1.993,0,1,0-2.818,2.818Z" transform="translate(-239.987 -158.992)"/><path class="a" d="M335.4,284.583a1.993,1.993,0,1,0-2.818,2.818l1,1a1.993,1.993,0,0,0,2.818-2.818Z" transform="translate(-236.987 -200.989)"/><path class="a" d="M142.989,288.981a1.993,1.993,0,0,0,1.409-3.4l-1-1a1.993,1.993,0,1,0-2.818,2.818l1,1A1.987,1.987,0,0,0,142.989,288.981Z" transform="translate(-92.995 -200.989)"/><path class="a" d="M133.58,200.4a1.993,1.993,0,0,0,2.818-2.818l-1-1a1.993,1.993,0,1,0-2.818,2.818Z" transform="translate(-86.995 -134.993)"/><path class="a" d="M79.4,286.4l1-1a1.993,1.993,0,1,0-2.818-2.818l-1,1A1.993,1.993,0,1,0,79.4,286.4Z" transform="translate(-45.055 -199.489)"/><path class="a" d="M199.992,202.981a1.987,1.987,0,0,0,1.409-.584l1-1a1.993,1.993,0,1,0-2.818-2.818l-1,1a1.993,1.993,0,0,0,1.409,3.4Z" transform="translate(-136.492 -136.493)"/><path class="a" d="M73.992,206.981A1.987,1.987,0,0,0,75.4,206.4l1-1a1.993,1.993,0,1,0-2.818-2.818l-1,1a1.993,1.993,0,0,0,1.409,3.4Z" transform="translate(-42.051 -139.493)"/><path class="a" d="M320.583,204.4a1.993,1.993,0,0,0,2.818,0l1-1a1.993,1.993,0,0,0-2.818-2.818l-1,1A1.993,1.993,0,0,0,320.583,204.4Z" transform="translate(-227.988 -137.993)"/><path class="a" d="M320.4,256.583a1.993,1.993,0,0,0-2.818,0l-1,1A1.993,1.993,0,0,0,319.4,260.4l1-1A1.993,1.993,0,0,0,320.4,256.583Z" transform="translate(-224.988 -179.99)"/><path class="a" d="M395.4,228.583a1.993,1.993,0,1,0-2.818,2.818l1,1a1.993,1.993,0,0,0,2.818-2.818Z" transform="translate(-281.985 -158.992)"/><path class="a" d="M391.4,284.583a1.993,1.993,0,1,0-2.818,2.818l1,1a1.993,1.993,0,0,0,2.818-2.818Z" transform="translate(-278.985 -200.989)"/><path class="a" d="M121,54h-6.171l-10-10H129a7,7,0,0,0,0-14H90.828L77.414,16.586a2,2,0,0,0-2.828,0L61.171,30H22a2,2,0,0,0-2,2A16.018,16.018,0,0,0,36,48a2,2,0,0,0,.895-.211L40,46.236l3.105,1.553a1.994,1.994,0,0,0,.194.083L37.171,54H26a9.976,9.976,0,0,0-7.409,3.292,2.035,2.035,0,0,0-.173.2A9.954,9.954,0,0,0,16,64V88a9.954,9.954,0,0,0,2.417,6.508,2.037,2.037,0,0,0,.173.2A9.977,9.977,0,0,0,26,98H37.171l37.414,37.414a2,2,0,0,0,2.828,0L114.828,98H121a15.017,15.017,0,0,0,15-15V69A15.017,15.017,0,0,0,121,54Zm-8.078,38.273A10.967,10.967,0,0,1,107,94h-3.816A14.96,14.96,0,0,0,108,83v-2.27a1.987,1.987,0,0,0,.414-.315l1-1A2,2,0,0,0,108,76V69a15.007,15.007,0,0,0-.138-2.007c.046,0,.092.007.138.007a1.994,1.994,0,0,0,1.414-.586l1-1a2,2,0,0,0-2.828-2.828l-.714.714a15.053,15.053,0,0,0-3.688-5.3H107a10.993,10.993,0,0,1,11,11V83A10.966,10.966,0,0,1,112.922,92.273ZM104,69V83A11.012,11.012,0,0,1,93,94H88V58h5A11.012,11.012,0,0,1,104,69ZM76,20.828,85.171,30H66.828ZM40.894,42.211a2,2,0,0,0-1.789,0l-3.56,1.78A12.021,12.021,0,0,1,24.167,34H129a3,3,0,1,1,0,6H96a2,2,0,0,0-1.414.586L91.6,43.566l-2.71-1.355a2,2,0,0,0-1.789,0L84,43.764l-3.105-1.553a2,2,0,0,0-1.789,0L76,43.764l-3.106-1.553a2,2,0,0,0-1.789,0L68,43.764l-3.105-1.553a2,2,0,0,0-1.789,0L60,43.764l-3.105-1.553a2,2,0,0,0-1.789,0L52,43.764l-3.105-1.553a2,2,0,0,0-1.789,0L44,43.764ZM38,94,57,68.666,62.5,76,49,94ZM76,64.667V79.333L65,94H54ZM76,86v8H70Zm0-28-3,4-3-4Zm-5.5,7.332L65,72.666l-6.4-8.534L54,58H65ZM49,58l5.5,7.333L49,72.666l-6.4-8.534L38,58ZM33,58l5.5,7.333L33,72.666,22.73,58.973A5.963,5.963,0,0,1,26,58ZM20.241,89.679A5.979,5.979,0,0,1,20,88V80.828l3.93,3.931Zm6.114-8.152L20,75.171V64a5.978,5.978,0,0,1,.241-1.679L30.5,76Zm-3.625,11.5L41,68.666,46.5,76,33,94H26a5.963,5.963,0,0,1-3.27-.973ZM76,131.171,42.828,98H78a2,2,0,0,0,2-2V56a2,2,0,0,0-2-2H42.828l6.9-6.9,1.377.688a2,2,0,0,0,1.789,0L56,46.236l3.105,1.553a2,2,0,0,0,1.789,0L64,46.236l3.105,1.553a2,2,0,0,0,1.789,0L72,46.236l3.105,1.553a2,2,0,0,0,1.789,0L80,46.236l3.105,1.553a2,2,0,0,0,1.789,0L88,46.236l3.105,1.553a2,2,0,0,0,2.309-.375L96.828,44h2.343l10.187,10.187A15.1,15.1,0,0,0,107,54h-7a2,2,0,0,0-1.71.966A14.919,14.919,0,0,0,93,54H86a2,2,0,0,0-2,2V96a2,2,0,0,0,2,2h7a14.92,14.92,0,0,0,5.29-.966A2,2,0,0,0,100,98h7a15.1,15.1,0,0,0,2.359-.187ZM132,83a11.012,11.012,0,0,1-11,11h-3.8A14.934,14.934,0,0,0,122,83v-2.27a1.987,1.987,0,0,0,.414-.315l1-1A2,2,0,0,0,122,76V69a15.206,15.206,0,0,0-.134-2.007c.045,0,.089.007.134.007a1.994,1.994,0,0,0,1.414-.586l1-1a2,2,0,1,0-2.828-2.828l-.707.707A14.915,14.915,0,0,0,117.2,58H121a11.012,11.012,0,0,1,11,11Z"/><path class="a" d="M451.4,228.583a1.993,1.993,0,1,0-2.818,2.818l1,1a1.993,1.993,0,0,0,2.818-2.818Z" transform="translate(-323.956 -158.992)"/><path class="a" d="M447.4,284.583a1.993,1.993,0,1,0-2.818,2.818l1,1a1.993,1.993,0,0,0,2.818-2.818Z" transform="translate(-320.952 -200.989)"/><rect class="a" width="3.985" height="5.242" transform="matrix(0.707, -0.707, 0.707, 0.707, 65.8, 114.698)"/><rect class="a" width="3.985" height="5.242" transform="matrix(0.707, -0.707, 0.707, 0.707, 59.373, 108.202)"/><rect class="a" width="3.985" height="5.242" transform="matrix(0.707, -0.707, 0.707, 0.707, 52.946, 101.775)"/><rect class="a" width="5.242" height="3.985" transform="matrix(0.707, -0.707, 0.707, 0.707, 86.102, 109.088)"/><rect class="a" width="5.242" height="3.985" transform="matrix(0.707, -0.707, 0.707, 0.707, 92.529, 102.661)"/><rect class="a" width="5.242" height="3.985" transform="matrix(0.707, -0.707, 0.707, 0.707, 79.675, 115.584)"/><path class="a" d="M244.633,425.814l-.952-.953-2.818,2.818,3.706,3.707.064-.064.064.064,3.706-3.707-2.818-2.818Z" transform="translate(-168.633 -306.58)"/></g></svg>