<svg xmlns="http://www.w3.org/2000/svg" width="96.534" height="120" viewBox="0 0 96.534 120"><defs><style>.a{fill:#d14a3b;}</style></defs><g transform="translate(-50.062 0)"><g transform="translate(50.062 0)"><path class="a" d="M138.239,84.549A1.758,1.758,0,0,0,140,82.791V28.978a5.839,5.839,0,0,1,1.316-3.688l3.172-3.876A9.364,9.364,0,0,0,146.6,15.5V1.758a1.758,1.758,0,0,0-2.549-1.57l-8.512,4.289L127.023.188a1.757,1.757,0,0,0-1.582,0L116.93,4.478,108.419.188a1.758,1.758,0,0,0-1.583,0l-8.51,4.289L89.816.188a1.758,1.758,0,0,0-1.582,0L79.724,4.478,71.214.188a1.758,1.758,0,0,0-1.582,0l-8.51,4.289L52.611.188a1.758,1.758,0,0,0-2.549,1.57V15.5a9.364,9.364,0,0,0,2.111,5.914l3.172,3.876a5.84,5.84,0,0,1,1.316,3.687V91.022a5.838,5.838,0,0,1-1.316,3.687l-3.172,3.876a9.364,9.364,0,0,0-2.111,5.914v13.743a1.758,1.758,0,0,0,2.549,1.57l8.51-4.289,8.51,4.289a1.758,1.758,0,0,0,1.583,0l8.51-4.289,8.509,4.289a1.758,1.758,0,0,0,1.583,0l8.51-4.289,8.51,4.289a1.758,1.758,0,0,0,1.583,0l8.511-4.289,8.511,4.289a1.757,1.757,0,0,0,1.582,0l8.512-4.289,8.512,4.289a1.758,1.758,0,0,0,2.549-1.57V104.5a9.362,9.362,0,0,0-2.111-5.914l-3.172-3.876A5.839,5.839,0,0,1,140,91.022a1.758,1.758,0,0,0-3.516,0,9.362,9.362,0,0,0,2.111,5.914l3.172,3.876a5.839,5.839,0,0,1,1.316,3.687v.913h-89.5V104.5a5.838,5.838,0,0,1,1.316-3.687l3.172-3.876a9.363,9.363,0,0,0,2.111-5.914V79.24h76.3v3.551a1.758,1.758,0,0,0,1.758,1.758Zm4.841,24.38v6.459l-6.754-3.4a1.756,1.756,0,0,0-1.582,0l-8.512,4.289-8.511-4.289a1.756,1.756,0,0,0-1.582,0l-8.511,4.289-8.51-4.289a1.757,1.757,0,0,0-1.583,0l-8.51,4.289-8.509-4.289a1.757,1.757,0,0,0-1.582,0l-8.51,4.289-8.51-4.289a1.757,1.757,0,0,0-1.583,0l-6.752,3.4v-6.458ZM53.578,4.613l6.752,3.4a1.758,1.758,0,0,0,1.582,0l8.51-4.289,8.51,4.289a1.758,1.758,0,0,0,1.582,0l8.509-4.289,8.51,4.289a1.758,1.758,0,0,0,1.583,0l8.51-4.289,8.511,4.289a1.757,1.757,0,0,0,1.582,0l8.511-4.289,8.512,4.289a1.757,1.757,0,0,0,1.582,0l6.754-3.4v6.459h-89.5Zm6.6,71.111V44.139H71.9a1.758,1.758,0,1,0,0-3.516H60.177V28.978a9.364,9.364,0,0,0-2.111-5.914l-3.172-3.876A5.839,5.839,0,0,1,53.578,15.5v-.913h89.5V15.5a5.838,5.838,0,0,1-1.316,3.687l-3.172,3.876a9.366,9.366,0,0,0-2.111,5.914V40.623H80.065a1.758,1.758,0,1,0,0,3.516h56.416V75.724h-76.3Z" transform="translate(-50.062 0)"/><path class="a" d="M236.951,226.574c0-.011-.008-.022-.013-.033a1.444,1.444,0,0,0-1.34-.9h0a1.444,1.444,0,0,0-1.34.9l-.01.027-4.456,11.7a1.18,1.18,0,1,0,2.206.84l.82-2.154h5.53l.812,2.15a1.18,1.18,0,1,0,2.208-.833Zm-3.235,8.023,1.878-4.932,1.861,4.932Z" transform="translate(-187.648 -172.809)"/><path class="a" d="M182.474,225.495a1.18,1.18,0,0,0-1.169,1.192l.08,8.256-6.157-8.915a1.18,1.18,0,0,0-2.152.671v11.879a1.18,1.18,0,0,0,2.36,0v-8.093L181.317,239a1.342,1.342,0,0,0,1.514.566,1.4,1.4,0,0,0,.946-1.4l-.111-11.5A1.175,1.175,0,0,0,182.474,225.495Z" transform="translate(-144.27 -172.695)"/><path class="a" d="M356.4,232.514l5.081-4.67a1.18,1.18,0,1,0-1.6-1.738l-4.4,4.048v-3.329a1.18,1.18,0,1,0-2.36,0v11.866a1.18,1.18,0,1,0,2.36,0v-3.786l4.8,4.636a1.18,1.18,0,0,0,1.639-1.7Z" transform="translate(-282.145 -172.81)"/><path class="a" d="M296.856,236.257a3.647,3.647,0,0,1-.362.374,3.6,3.6,0,0,1-2.471.879,4.753,4.753,0,1,1,2.656-8.7A1.18,1.18,0,1,0,298,226.86a7.114,7.114,0,1,0-3.978,13.012,5.85,5.85,0,0,0,4.642-2.1,1.18,1.18,0,1,0-1.808-1.518Z" transform="translate(-231.454 -172.809)"/><path class="a" d="M126.805,231.74c-1.507-.556-2.906-1.162-3.281-1.327a1.117,1.117,0,0,1-.435-1.078,1.525,1.525,0,0,1,1.156-1.2,4.265,4.265,0,0,1,3.545.811,1.18,1.18,0,0,0,1.514-1.811,6.591,6.591,0,0,0-5.74-1.26A3.874,3.874,0,0,0,120.752,229a3.373,3.373,0,0,0,1.234,3.222,21.019,21.019,0,0,0,4,1.733c1.251.461,1.889,1.173,1.749,1.953a2.305,2.305,0,0,1-2.371,1.6,4.438,4.438,0,0,1-3.26-1.371,1.18,1.18,0,0,0-1.749,1.585,6.833,6.833,0,0,0,5.01,2.147,4.651,4.651,0,0,0,4.7-3.545C130.335,234.789,129.624,232.78,126.805,231.74Z" transform="translate(-103.661 -172.805)"/></g></g></svg>