<svg xmlns="http://www.w3.org/2000/svg" width="100" height="123" viewBox="0 0 100 123"><defs><style>.a{fill:none;stroke:#d14a3b;stroke-linecap:round;stroke-linejoin:round;stroke-miterlimit:10;stroke-width:3px;}</style></defs><g transform="translate(-10.1 -5)"><path class="a" d="M34.2,66.661h0l30.4-30.4L75.261,25.6a16.164,16.164,0,0,1,0,22.459L64.6,58.721,45.316,78l-4.991-4.991" transform="translate(28.802 24.08)"/><path class="a" d="M33.682,68.074C40.034,60.587,46.613,54.235,53.645,49.7l-5.9-5.9L23.7,67.847" transform="translate(15.404 47.083)"/><path class="a" d="M34.6,54.754a6.654,6.654,0,0,1-.227,9.074v.227a6.578,6.578,0,0,1-9.528,0v-.227a7,7,0,0,1,0-9.528" transform="translate(14.471 60.403)"/><path class="a" d="M39.05,124.231H16.137A4.546,4.546,0,0,1,11.6,119.7V11.028A4.546,4.546,0,0,1,16.137,6.5H88.732a4.546,4.546,0,0,1,4.537,4.528V60.385" transform="translate(0 0)"/><path class="a" d="M72.464,40.2V77.178a4.55,4.55,0,0,1-4.537,4.537H28" transform="translate(20.898 42.516)"/><path class="a" d="M62.2,20.574H23.637A4.55,4.55,0,0,1,19.1,16.037a3.807,3.807,0,0,1,1.361-3.176A4.479,4.479,0,0,1,23.637,11.5H62.2a4.55,4.55,0,0,1,4.537,4.537,3.807,3.807,0,0,1-1.361,3.176A3.807,3.807,0,0,1,62.2,20.574Z" transform="translate(9.56 6.343)"/></g></svg>