<svg xmlns="http://www.w3.org/2000/svg" xmlns:xlink="http://www.w3.org/1999/xlink" width="57" height="57" viewBox="0 0 57 57"><defs><style>.a{fill:none;}.b{fill-rule:evenodd;fill:url(#a);}</style><radialGradient id="a" cx="0.149" cy="1.003" r="1.278" gradientUnits="objectBoundingBox"><stop offset="0" stop-color="#ffb140"/><stop offset="0.256" stop-color="#ff5445"/><stop offset="0.599" stop-color="#fc2b82"/><stop offset="1" stop-color="#8e40b7"/></radialGradient></defs><g transform="translate(0.43 0.43)"><g transform="translate(-0.43 -0.43)"><rect class="a" width="57" height="57"/><path class="b" d="M46.06,12.984a3.342,3.342,0,1,1-3.342-3.342A3.342,3.342,0,0,1,46.06,12.984ZM27.851,37.134a9.283,9.283,0,1,1,9.283-9.283A9.283,9.283,0,0,1,27.851,37.134Zm0-23.585a14.3,14.3,0,1,0,14.3,14.3A14.3,14.3,0,0,0,27.851,13.549Zm0-8.531c7.437,0,8.317.028,11.254.162a15.406,15.406,0,0,1,5.172.959,8.63,8.63,0,0,1,3.2,2.084,8.623,8.623,0,0,1,2.084,3.2,15.417,15.417,0,0,1,.959,5.172c.134,2.937.162,3.818.162,11.254s-.028,8.317-.162,11.254a15.406,15.406,0,0,1-.959,5.172,9.225,9.225,0,0,1-5.286,5.286,15.417,15.417,0,0,1-5.172.959c-2.937.134-3.817.162-11.254.162s-8.318-.028-11.254-.162a15.406,15.406,0,0,1-5.172-.959,8.63,8.63,0,0,1-3.2-2.084,8.629,8.629,0,0,1-2.084-3.2,15.417,15.417,0,0,1-.959-5.172c-.134-2.937-.162-3.818-.162-11.254s.028-8.317.162-11.254a15.406,15.406,0,0,1,.959-5.172,8.63,8.63,0,0,1,2.084-3.2,8.623,8.623,0,0,1,3.2-2.084A15.417,15.417,0,0,1,16.6,5.181C19.533,5.047,20.414,5.018,27.851,5.018Zm0-5.018c-7.564,0-8.512.032-11.483.168a20.442,20.442,0,0,0-6.76,1.295A13.648,13.648,0,0,0,4.675,4.675,13.648,13.648,0,0,0,1.462,9.608a20.444,20.444,0,0,0-1.295,6.76C.032,19.339,0,20.287,0,27.851s.032,8.512.168,11.483a20.444,20.444,0,0,0,1.295,6.76,13.648,13.648,0,0,0,3.212,4.933A13.653,13.653,0,0,0,9.608,54.24a20.444,20.444,0,0,0,6.76,1.295c2.97.135,3.919.168,11.483.168s8.512-.032,11.483-.168a20.444,20.444,0,0,0,6.76-1.295,14.242,14.242,0,0,0,8.146-8.146,20.444,20.444,0,0,0,1.295-6.76c.135-2.97.168-3.919.168-11.483s-.032-8.512-.168-11.483a20.444,20.444,0,0,0-1.295-6.76,13.653,13.653,0,0,0-3.212-4.933,13.653,13.653,0,0,0-4.933-3.212A20.444,20.444,0,0,0,39.334.168C36.363.032,35.415,0,27.851,0Z" transform="translate(0.487 0.487)"/></g></g></svg>