<svg xmlns="http://www.w3.org/2000/svg" width="19" height="19" viewBox="0 0 19 19"><defs><style>.a{fill:none;}.b{fill:#fff;fill-rule:evenodd;}</style></defs><g transform="translate(0 0)"><rect class="a" width="19" height="19"/><path class="b" d="M15.372,4.333a1.115,1.115,0,1,1-1.115-1.115A1.115,1.115,0,0,1,15.372,4.333Zm-6.077,8.06a3.1,3.1,0,1,1,3.1-3.1A3.1,3.1,0,0,1,9.295,12.393Zm0-7.871a4.773,4.773,0,1,0,4.773,4.773A4.773,4.773,0,0,0,9.295,4.522Zm0-2.847c2.482,0,2.776.009,3.756.054a5.142,5.142,0,0,1,1.726.32,2.88,2.88,0,0,1,1.069.7,2.878,2.878,0,0,1,.7,1.069,5.145,5.145,0,0,1,.32,1.726c.045.98.054,1.274.054,3.756s-.009,2.776-.054,3.756a5.141,5.141,0,0,1-.32,1.726,3.079,3.079,0,0,1-1.764,1.764,5.145,5.145,0,0,1-1.726.32c-.98.045-1.274.054-3.756.054s-2.776-.009-3.756-.054a5.142,5.142,0,0,1-1.726-.32,2.88,2.88,0,0,1-1.069-.7,2.88,2.88,0,0,1-.7-1.069,5.145,5.145,0,0,1-.32-1.726c-.045-.98-.054-1.274-.054-3.756s.009-2.776.054-3.756a5.141,5.141,0,0,1,.32-1.726,2.88,2.88,0,0,1,.7-1.069,2.878,2.878,0,0,1,1.069-.7,5.145,5.145,0,0,1,1.726-.32C6.519,1.684,6.813,1.675,9.295,1.675ZM9.295,0C6.77,0,6.454.011,5.463.056A6.822,6.822,0,0,0,3.206.488,4.555,4.555,0,0,0,1.56,1.56,4.555,4.555,0,0,0,.488,3.206,6.823,6.823,0,0,0,.056,5.463C.011,6.454,0,6.77,0,9.295s.011,2.841.056,3.832a6.823,6.823,0,0,0,.432,2.256A4.555,4.555,0,0,0,1.56,17.029,4.557,4.557,0,0,0,3.206,18.1a6.823,6.823,0,0,0,2.256.432c.991.045,1.308.056,3.832.056s2.841-.011,3.832-.056a6.823,6.823,0,0,0,2.256-.432A4.753,4.753,0,0,0,18.1,15.383a6.823,6.823,0,0,0,.432-2.256c.045-.991.056-1.308.056-3.832s-.011-2.841-.056-3.832A6.823,6.823,0,0,0,18.1,3.206,4.557,4.557,0,0,0,17.029,1.56,4.557,4.557,0,0,0,15.383.488,6.823,6.823,0,0,0,13.127.056C12.136.011,11.819,0,9.295,0Z" transform="translate(0.154 0.154)"/></g></svg>