<svg xmlns="http://www.w3.org/2000/svg" width="120.004" height="120" viewBox="0 0 120.004 120"><defs><style>.a{fill:#d14a3b;}</style></defs><g transform="translate(0 -0.008)"><g transform="translate(0 0.008)"><path class="a" d="M176.793,446.2a17.431,17.431,0,0,1-8.8-1.48,2.359,2.359,0,1,0-1.79,4.365,23.469,23.469,0,0,0,8.957,1.925,19.081,19.081,0,0,0,2.166-.123,2.359,2.359,0,1,0-.535-4.688Z" transform="translate(-126.164 -340.456)"/><path class="a" d="M119.9,46.983c-.846-7.474-7.028-14.909-18.392-22.134,1.341-6.415,2.368-12.061-.079-18.77A9.207,9.207,0,0,0,96.667.832a8.171,8.171,0,0,0-6.1-.413,7.023,7.023,0,0,0-4.186,9.006,26.055,26.055,0,0,1,1.6,8.257c-9.15-3.813-16.633-4.494-22.323-2.015-5.288,2.3-8.825,7.2-10.512,14.558a3.664,3.664,0,0,0,.437,2.745A104.374,104.374,0,0,0,49.8,44.837a15.563,15.563,0,0,0-5.332-1.826c-6.138-.922-13.189,1.674-21.041,7.725a26.047,26.047,0,0,1-.594-8.387,7.024,7.024,0,0,0-6.374-7.618,8.168,8.168,0,0,0-5.782,1.977,9.21,9.21,0,0,0-3.245,6.3c-.627,7.112,1.826,12.3,4.782,18.149C3.112,71.082-.935,79.863.182,87.3c.857,5.7,4.672,10.388,11.341,13.922a3.613,3.613,0,0,0,1.714.436,4.009,4.009,0,0,0,1.05-.147c10.71,10.461,20.3,16.356,29.291,18.006a29.262,29.262,0,0,0,5.3.49c5.634,0,10.173-1.672,13.99-3.079,2.7-.994,5.026-1.852,7.034-1.852a2.344,2.344,0,0,0,2.344-2.344c0-2.007.859-4.336,1.852-7.034,1.386-3.76,3.027-8.219,3.076-13.737A30.524,30.524,0,0,0,91.741,86.1c6.278-4.549,12.244-11.666,18.214-21.734h.013a3.664,3.664,0,0,0,2.583-1c5.527-5.139,8-10.651,7.352-16.383ZM90.788,7.817a2.336,2.336,0,0,1,1.392-3,3.478,3.478,0,0,1,2.51.261,4.478,4.478,0,0,1,2.339,2.606c1.818,4.982,1.267,9.4.222,14.6q-2.362-1.345-4.608-2.469A30.449,30.449,0,0,0,90.788,7.817ZM12.106,43.426A4.479,4.479,0,0,1,13.691,40.3a3.477,3.477,0,0,1,2.357-.9,2.336,2.336,0,0,1,2.119,2.535A30.451,30.451,0,0,0,19.483,54.01q-1.878,1.665-3.813,3.578c-2.356-4.76-4.031-8.881-3.565-14.163ZM4.817,86.6C3.832,80.041,8.572,71.31,18.526,61.356c9.094-9.095,17.167-13.837,23.5-13.837a11.782,11.782,0,0,1,1.749.128c4.045.608,7.495,3.465,10.258,8.5a13.884,13.884,0,0,1-3.1,3.075c-2.054,1.671-4.724,3.544-7.552,5.527C38.928,67.871,34.319,71.1,31.3,74.126s-6.255,7.631-9.381,12.089c-1.983,2.827-3.856,5.5-5.527,7.552a13.877,13.877,0,0,1-3.075,3.1C8.282,94.1,5.425,90.65,4.817,86.6ZM69.7,104.078a36.156,36.156,0,0,0-1.957,6.495,36.181,36.181,0,0,0-6.495,1.957c-9.3,3.428-20.819,7.667-43.026-13.734.338-.356.629-.689.864-.957,2.023-2.311,4.279-5.527,6.667-8.933,3.011-4.293,6.125-8.733,8.858-11.466s7.173-5.847,11.466-8.858c3.406-2.388,6.622-4.644,8.933-6.667.268-.235.6-.527.957-.864,21.4,22.207,17.161,33.726,13.734,43.026Zm7.135-16.79c-.045-.291-.093-.584-.147-.88-1.65-8.988-7.545-18.581-18.007-29.292a3.664,3.664,0,0,0-.289-2.764A27,27,0,0,0,53.676,47.8a94.762,94.762,0,0,1,5.547-11.73c.431.234.829.43,1.149.587,2.755,1.356,6.446,2.7,10.354,4.128,4.926,1.8,10.02,3.656,13.368,5.588s7.5,5.415,11.524,8.783c3.188,2.671,6.2,5.195,8.752,6.9.3.2.664.444,1.082.7C93.688,82.247,83.765,86.422,76.836,87.288Zm32.857-27.67a13.886,13.886,0,0,1-3.771-2.2c-2.146-1.551-4.646-3.646-7.293-5.864-4.174-3.5-8.489-7.112-12.19-9.249s-8.99-4.066-14.105-5.933c-3.244-1.184-6.309-2.3-8.725-3.384a13.885,13.885,0,0,1-3.787-2.168c1.367-5.575,3.959-9.228,7.709-10.862,6.085-2.651,15.746-.332,27.937,6.707s19.03,14.245,19.777,20.84c.46,4.065-1.407,8.136-5.552,12.108Z" transform="translate(0 -0.008)"/><path class="a" d="M128.212,421.9h0a2.359,2.359,0,1,0,2.361,2.359A2.358,2.358,0,0,0,128.21,421.9Z" transform="translate(-96.363 -323.153)"/></g></g></svg>