<svg xmlns="http://www.w3.org/2000/svg" width="50.5" height="63" viewBox="0 0 50.5 63"><defs><style>.a{fill:#65924f;}</style></defs><g transform="translate(-4 -1)"><g transform="translate(4 5.199)"><path class="a" d="M51.344,3H38.807V5.1H51.344A1.053,1.053,0,0,1,52.4,6.15v52.5a1.053,1.053,0,0,1-1.052,1.05H7.156A1.053,1.053,0,0,1,6.1,58.651V6.15A1.053,1.053,0,0,1,7.156,5.1H19.781V3H7.156A3.157,3.157,0,0,0,4,6.15v52.5A3.157,3.157,0,0,0,7.156,61.8H51.344a3.157,3.157,0,0,0,3.156-3.15V6.15A3.157,3.157,0,0,0,51.344,3Z" transform="translate(-4 -3)"/><g transform="translate(37.904 4.199)"><path class="a" d="M29.348,40.689a1.05,1.05,0,0,1-1.05-1.05V7.1H23.05a1.05,1.05,0,0,1,0-2.1h6.3A1.05,1.05,0,0,1,30.4,6.05V39.639A1.05,1.05,0,0,1,29.348,40.689Z" transform="translate(-22 -5)"/></g><g transform="translate(4.199 4.199)"><path class="a" d="M36.44,55.4H7.05A1.05,1.05,0,0,1,6,54.354V6.05A1.05,1.05,0,0,1,7.05,5h6.3a1.05,1.05,0,0,1,0,2.1H8.1V53.3H36.44a1.05,1.05,0,0,1,0,2.1Z" transform="translate(-6 -5)"/></g><g transform="translate(33.705 42.007)"><path class="a" d="M21.05,35.6a1.075,1.075,0,0,1-.4-.08,1.05,1.05,0,0,1-.649-.97V24.05A1.05,1.05,0,0,1,21.05,23h10.5a1.051,1.051,0,0,1,.743,1.793l-10.5,10.5A1.058,1.058,0,0,1,21.05,35.6ZM22.1,25.1v6.913L29.012,25.1Z" transform="translate(-20 -23)"/></g><g transform="translate(8.449 14.532)"><g transform="translate(0.001 10.497)"><path class="a" d="M11.47,21.422h-.023a1.043,1.043,0,0,1-.773-.365L8.254,18.231a1.049,1.049,0,1,1,1.593-1.365L11.508,18.8l3.338-3.554a1.051,1.051,0,0,1,1.53,1.44l-4.14,4.406A1.064,1.064,0,0,1,11.47,21.422Z" transform="translate(-8 -14.918)"/></g><g transform="translate(0.001)"><path class="a" d="M11.47,16.422h-.023a1.043,1.043,0,0,1-.773-.365L8.254,13.231a1.049,1.049,0,1,1,1.593-1.365L11.508,13.8l3.338-3.554a1.051,1.051,0,0,1,1.53,1.44l-4.14,4.406A1.064,1.064,0,0,1,11.47,16.422Z" transform="translate(-8 -9.918)"/></g><g transform="translate(10.497 25.365)"><path class="a" d="M22.447,24.1h-8.4a1.05,1.05,0,0,1,0-2.1h8.4a1.05,1.05,0,0,1,0,2.1Z" transform="translate(-13 -22)"/></g><g transform="translate(10.497 21.166)"><path class="a" d="M32.944,22.1H14.05a1.05,1.05,0,1,1,0-2.1H32.944a1.05,1.05,0,1,1,0,2.1Z" transform="translate(-13 -20)"/></g><g transform="translate(23.093 10.67)"><path class="a" d="M26.348,17.1h-6.3a1.05,1.05,0,0,1,0-2.1h6.3a1.05,1.05,0,1,1,0,2.1Z" transform="translate(-19 -15)"/></g><g transform="translate(10.497 14.868)"><path class="a" d="M28.745,19.1H14.05a1.05,1.05,0,0,1,0-2.1h14.7a1.05,1.05,0,0,1,0,2.1Z" transform="translate(-13 -17)"/></g><g transform="translate(10.497 10.67)"><path class="a" d="M22.447,17.1h-8.4a1.05,1.05,0,0,1,0-2.1h8.4a1.05,1.05,0,0,1,0,2.1Z" transform="translate(-13 -15)"/></g><g transform="translate(10.497 0.173)"><path class="a" d="M32.944,12.1H14.05a1.05,1.05,0,1,1,0-2.1H32.944a1.05,1.05,0,1,1,0,2.1Z" transform="translate(-13 -10)"/></g><g transform="translate(10.497 4.372)"><path class="a" d="M24.546,14.1H14.05a1.05,1.05,0,0,1,0-2.1h10.5a1.05,1.05,0,0,1,0,2.1Z" transform="translate(-13 -12)"/></g><g transform="translate(0 21.166)"><path class="a" d="M13.248,26.3H9.05A1.05,1.05,0,0,1,8,25.248v-4.2A1.05,1.05,0,0,1,9.05,20h4.2a1.05,1.05,0,0,1,1.05,1.05v4.2A1.05,1.05,0,0,1,13.248,26.3ZM10.1,24.2h2.1V22.1H10.1Z" transform="translate(-8 -20)"/></g></g></g><g transform="translate(18.753 3.099)"><path class="a" d="M30.944,12.5H12.05A1.05,1.05,0,0,1,11,11.447v-6.3A3.153,3.153,0,0,1,14.149,2a1.05,1.05,0,1,1,0,2.1,1.051,1.051,0,0,0-1.05,1.05V10.4H29.894V5.149a1.051,1.051,0,0,0-1.05-1.05,1.05,1.05,0,0,1,0-2.1,3.153,3.153,0,0,1,3.149,3.149v6.3A1.05,1.05,0,0,1,30.944,12.5Z" transform="translate(-11 -2)"/></g><g transform="translate(25.051 1)"><path class="a" d="M21.348,5.2a1.05,1.05,0,0,1-1.05-1.05,1.051,1.051,0,0,0-1.05-1.05h-2.1a1.025,1.025,0,0,0-.621.2,1.037,1.037,0,0,0-.428.846,1.05,1.05,0,0,1-2.1,0,3.16,3.16,0,0,1,1.278-2.534A3.126,3.126,0,0,1,17.149,1h2.1A3.153,3.153,0,0,1,22.4,4.149,1.05,1.05,0,0,1,21.348,5.2Z" transform="translate(-14 -1)"/></g></g></svg>