<svg xmlns="http://www.w3.org/2000/svg" width="50.5" height="50.5" viewBox="0 0 50.5 50.5"><defs><style>.a{fill:#65924f;}</style></defs><g transform="translate(0 -0.243)"><g transform="translate(0 0.243)"><g transform="translate(0 0)"><path class="a" d="M50.148,18.377,44.506,3.693A5.38,5.38,0,0,0,37.549.6l-.12.048L9.234,12.352a5.363,5.363,0,0,0-2.976,6.861l.775,2.071H5.255A5.264,5.264,0,0,0,0,26.544V45.482a5.264,5.264,0,0,0,5.255,5.26H40.99a5.264,5.264,0,0,0,5.255-5.26V26.544a5.176,5.176,0,0,0-.076-.852l.976-.4A5.409,5.409,0,0,0,50.148,18.377ZM5.255,22.967H40.99a3.57,3.57,0,0,1,3.552,3.367H1.7A3.57,3.57,0,0,1,5.255,22.967Zm8.451-5.07,5.62-2.814,1.155,2.893-5.62,2.813ZM44.564,45.482a3.579,3.579,0,0,1-3.574,3.577H5.255a3.579,3.579,0,0,1-3.574-3.577V34.751H44.564Zm0-12.415H1.682v-5.05H44.564Zm1.952-9.326-.879.356a5.257,5.257,0,0,0-4.646-2.814H17.634l4.292-2.149a.842.842,0,0,0,.405-1.066l-1.783-4.461a.841.841,0,0,0-1.093-.469q-.033.013-.064.029l-7.129,3.57a.842.842,0,0,0-.4,1.066l1.391,3.479H8.829l-1-2.658a3.686,3.686,0,0,1,2.045-4.713l28.194-11.7a3.693,3.693,0,0,1,4.828,2q.018.044.035.089l5.642,14.684A3.717,3.717,0,0,1,46.515,23.742Z" transform="translate(0 -0.243)"/><path class="a" d="M266.378,361.591a5.02,5.02,0,0,0,5.044,0,5.02,5.02,0,1,0,0-8.681,5.02,5.02,0,1,0-5.044,8.681Zm6.442-7.483a3.347,3.347,0,1,1,0,6.285A5,5,0,0,0,272.821,354.107Zm-1.4.952a3.286,3.286,0,0,1,0,4.381A3.285,3.285,0,0,1,271.422,355.06Zm-2.51-1.156a3.311,3.311,0,0,1,1.111.2,5,5,0,0,0,0,6.285,3.313,3.313,0,0,1-1.111.2,3.347,3.347,0,1,1,0-6.693Z" transform="translate(-236.086 -315.116)"/><rect class="a" width="1.673" height="8.735" transform="translate(36.222 18.887) rotate(-113.966)"/><rect class="a" width="12.697" height="1.672" transform="matrix(0.908, -0.419, 0.419, 0.908, 30.161, 15.568)"/></g></g></g></svg>