<svg xmlns="http://www.w3.org/2000/svg" width="57.389" height="57.39" viewBox="0 0 57.389 57.39"><defs><style>.a{fill:#3b5998;}.b{fill:#fff;}</style></defs><path class="a" d="M57.389,53.8A3.588,3.588,0,0,1,53.8,57.389H3.587A3.588,3.588,0,0,1,0,53.8V3.587A3.588,3.588,0,0,1,3.587,0H53.8a3.588,3.588,0,0,1,3.587,3.587Z" transform="translate(0)"/><path class="b" d="M29.141,53.422V31.9h7.174l1.793-8.967H29.141V19.347q0-5.38,5.38-5.38h3.587V5H30.934c-6.591,0-10.76,5.167-10.76,12.554v5.38H13V31.9h7.174V53.422Z" transform="translate(10.314 3.967)"/></svg>