<svg xmlns="http://www.w3.org/2000/svg" width="19" height="19" viewBox="0 0 19 19"><defs><style>.a{fill:#fff;}.b{fill:#65924f;}</style></defs><path class="a" d="M19,17.812A1.188,1.188,0,0,1,17.812,19H1.187A1.188,1.188,0,0,1,0,17.812V1.187A1.188,1.188,0,0,1,1.187,0H17.812A1.188,1.188,0,0,1,19,1.187Z" transform="translate(0)"/><path class="b" d="M18.1,20.314V13.508h2.269l.567-2.836H18.1V9.538a1.5,1.5,0,0,1,1.7-1.7h1.134V5H18.672c-2.084,0-3.4,1.634-3.4,3.97v1.7H13v2.836h2.269v6.806Z" transform="translate(-5.013 -1.314)"/></svg>