<svg xmlns="http://www.w3.org/2000/svg" width="52.5" height="50.5" viewBox="0 0 52.5 50.5"><defs><style>.a{fill:#65924f;}.b,.c{fill:none;stroke:#65924f;stroke-linejoin:round;stroke-miterlimit:10;stroke-width:2px;}.b{stroke-linecap:round;}</style></defs><g transform="translate(-1 -2)"><circle class="a" cx="4.214" cy="4.214" r="4.214" transform="translate(38.352 44.073)"/><circle class="a" cx="4.214" cy="4.214" r="4.214" transform="translate(17.856 44.073)"/><path class="b" d="M2,3H5.794A3.031,3.031,0,0,1,8.7,5.183l8.607,29.362a4.041,4.041,0,0,0,3.874,2.908H43.353a4.045,4.045,0,0,0,3.9-2.987L52.5,15.16H42.4" transform="translate(0 1.027)"/><path class="a" d="M29.293,9V20.321l4.647-4.647a2.026,2.026,0,0,1,2.866,2.866L28.7,26.646a2.026,2.026,0,0,1-2.866,0l-8.107-8.107a2.026,2.026,0,1,1,2.866-2.866l4.647,4.647V9H7l7.093,22.293h27.36L47.533,9Z" transform="translate(4.967 7.155)"/><path class="a" d="M20.053,4.027a2.027,2.027,0,1,0-4.053,0V14.16h4.053Z" transform="translate(14.272)"/><line class="c" x2="9.364" transform="translate(34.641 16.028)"/><line class="c" x2="17.791" transform="translate(12.248 16.028)"/></g></svg>