<svg xmlns="http://www.w3.org/2000/svg" width="50.5" height="42.5" viewBox="0 0 50.5 42.5"><defs><style>.a{fill:#65924f;}</style></defs><path class="a" d="M83.423,294.636a3.7,3.7,0,0,1-1.153,2.717,3.826,3.826,0,0,1-5.463,0,3.776,3.776,0,0,1,0-5.433,3.826,3.826,0,0,1,5.463,0A3.7,3.7,0,0,1,83.423,294.636Zm27.192,0a3.7,3.7,0,0,1-1.153,2.717,3.826,3.826,0,0,1-5.463,0,3.776,3.776,0,0,1,0-5.433,3.826,3.826,0,0,1,5.463,0A3.7,3.7,0,0,1,110.615,294.636ZM114.5,261.8V277.25a1.866,1.866,0,0,1-.5,1.283,1.923,1.923,0,0,1-1.229.649l-31.684,3.683a18.13,18.13,0,0,1,.395,2.113,5.81,5.81,0,0,1-.728,1.932h27.921a1.872,1.872,0,0,1,1.366.574,1.888,1.888,0,0,1,0,2.717,1.872,1.872,0,0,1-1.366.574H77.6a1.872,1.872,0,0,1-1.366-.574,1.852,1.852,0,0,1-.577-1.358,2.865,2.865,0,0,1,.243-.951,11.467,11.467,0,0,1,.486-1.087q.243-.468.652-1.207t.47-.89l-5.372-24.842H65.942a1.872,1.872,0,0,1-1.366-.573,1.888,1.888,0,0,1,0-2.717A1.872,1.872,0,0,1,65.942,256h7.769a1.856,1.856,0,0,1,.865.2,1.764,1.764,0,0,1,.592.468,2.937,2.937,0,0,1,.395.74,4.68,4.68,0,0,1,.243.785q.061.317.167.89t.137.785h36.449a1.871,1.871,0,0,1,1.366.574A1.852,1.852,0,0,1,114.5,261.8Z" transform="translate(-64 -256)"/></svg>