<svg xmlns="http://www.w3.org/2000/svg" width="33.016" height="28" viewBox="0 0 33.016 28"><defs><style>.a{fill:#fff;}</style></defs><path class="a" d="M76.7,281.455a2.578,2.578,0,1,1-.754-1.79A2.449,2.449,0,0,1,76.7,281.455Zm17.778,0a2.578,2.578,0,1,1-.754-1.79A2.449,2.449,0,0,1,94.477,281.455Zm2.54-21.636V270a1.234,1.234,0,0,1-.327.845,1.254,1.254,0,0,1-.8.428L75.171,273.7a12.032,12.032,0,0,1,.258,1.392,3.847,3.847,0,0,1-.476,1.273H93.207a1.273,1.273,0,0,1,0,2.545H72.889a1.289,1.289,0,0,1-1.27-1.273,1.9,1.9,0,0,1,.159-.626,7.593,7.593,0,0,1,.317-.716q.159-.308.427-.8t.308-.587l-3.512-16.366H65.27a1.273,1.273,0,0,1,0-2.546h5.079a1.205,1.205,0,0,1,.565.129,1.154,1.154,0,0,1,.387.308,1.939,1.939,0,0,1,.258.487,3.1,3.1,0,0,1,.159.517q.04.209.109.587t.089.517h23.83a1.289,1.289,0,0,1,1.27,1.273Z" transform="translate(-64 -256)"/></svg>