<svg xmlns="http://www.w3.org/2000/svg" width="116.122" height="120" viewBox="0 0 116.122 120"><defs><style>.a{fill:#d14a3b;}</style></defs><g transform="translate(-31.495 -23.998)"><rect class="a" width="2.775" height="2.774" transform="translate(118.801 94.004)"/><rect class="a" width="2.775" height="2.774" transform="translate(130.227 85.366)"/><rect class="a" width="2.775" height="2.774" transform="translate(110.302 64.871)"/><rect class="a" width="2.775" height="2.774" transform="translate(116.672 75.636)"/><rect class="a" width="2.775" height="2.774" transform="translate(128.84 104.667)"/><rect class="a" width="2.774" height="2.774" transform="matrix(0.707, 0.707, -0.707, 0.707, 58.291, 103.35)"/><rect class="a" width="2.774" height="2.774" transform="translate(56.33 130.284) rotate(-45)"/><rect class="a" width="2.775" height="2.775" transform="translate(60.255 80.587) rotate(135)"/><rect class="a" width="2.774" height="2.774" transform="matrix(0.707, -0.707, 0.707, 0.707, 43.937, 92.948)"/><rect class="a" width="2.774" height="2.774" transform="translate(72.715 92.946) rotate(135)"/><rect class="a" width="2.774" height="2.774" transform="translate(47.857 118.257) rotate(135)"/><rect class="a" width="2.774" height="2.774" transform="translate(70.753 120.22) rotate(-135)"/><path class="a" d="M105.92,51.72h-1.293V87.8h2.586V60.636a32.806,32.806,0,0,1,14.427,61.572,36.048,36.048,0,0,0,.711-4.687,18.1,18.1,0,0,0-4.2-13.069,14.9,14.9,0,0,0-6.66-4.519,14.946,14.946,0,0,0,1.768-8.086l-.091-1.09-1.09-.092c-.252-.021-6.207-.478-9.738,3.053a16.438,16.438,0,0,0-1.512,1.739,19.253,19.253,0,0,0-5.4-10.349l-1.816,1.841a16.638,16.638,0,0,1,4.92,11.768v1.993a13.75,13.75,0,0,0-5.1-1.413c-.346-.027-.695-.04-1.038-.04A14.3,14.3,0,0,0,81.5,104.453a17.44,17.44,0,0,0-3.484,6.461l-5.61-5.61,9.787-9.787v3.446H84.78V86.553A20.059,20.059,0,0,0,69.37,67.046c.221-15.359,7.475-21.258,7.545-21.313l3-2.317H76.125a24.641,24.641,0,0,0-6.99.939c1.316-12.915,7.578-17.993,7.64-18.041l3-2.317H75.985c-10.361,0-15.558,4.98-18.163,9.879-3-3.617-7.429-5.453-13.2-5.453h-3.79l3,2.317c.036.028,3.261,2.587,5.1,9.008A28.879,28.879,0,0,0,39.2,38.206H35.412l3,2.317c.078.06,7.838,6.226,9.18,22.364l2.577-.214C49.2,51.062,45.1,44.249,42.4,40.948c5.512.557,9.883,2.6,13.025,6.108,5.789,6.455,5.917,16.188,5.78,19.45H51.546A20.054,20.054,0,0,0,31.5,86.554v37.4A20.052,20.052,0,0,0,51.546,144H64.733a20.075,20.075,0,0,0,17.1-9.579c2.89,6.357,6.383,9.578,10.4,9.578,2.527,0,4.9-1.568,6.93-3.039a1.092,1.092,0,0,1,1.324.02c1.683,1.274,3.988,3.018,6.622,3.018,4.241,0,7.954-3.6,11.043-10.712a42.019,42.019,0,0,0,20.95-14.614,41.315,41.315,0,0,0,8.518-25.256A41.743,41.743,0,0,0,105.92,51.72ZM55.1,43.186a19.964,19.964,0,0,0-3.167-2.118,25.788,25.788,0,0,0-4.2-9.835,12.439,12.439,0,0,1,8.888,5.344A28.6,28.6,0,0,0,55.1,43.186ZM104.17,95.549c1.876-1.876,4.881-2.256,6.525-2.315a10.484,10.484,0,0,1-1.946,6.106,13.769,13.769,0,0,0-1.491-.082c-.343,0-.693.013-1.038.04a13.745,13.745,0,0,0-5.051,1.389A10.183,10.183,0,0,1,104.17,95.549Zm-33.592,7.925L59.988,92.883,70.579,82.291,81.17,92.882ZM56.33,117.723,45.737,128.315,35.146,117.725l10.592-10.593ZM35.148,92.884,45.741,82.291l10.59,10.592L45.739,103.475Zm12.42,12.42L58.159,94.711,68.75,105.3,58.158,115.895Zm34.627-18.75v3.7l-9.786-9.786,5.435-5.435A17.315,17.315,0,0,1,82.194,86.553ZM57.5,45.5a26.875,26.875,0,0,1,1.756-8.592c2.393-5.949,6.95-9.353,13.567-10.147-2.338,3-5.657,8.867-6.381,18.605A16.675,16.675,0,0,0,63.038,47.5l1.63,2.008a16.122,16.122,0,0,1,8.306-3.32c-2.452,3.179-5.954,9.586-6.187,20.417a20.352,20.352,0,0,0-2.054-.106H63.8C63.964,62.812,63.769,52.651,57.5,45.5Zm7.229,23.587A17.338,17.338,0,0,1,76,73.216L70.58,78.634l-9.543-9.543Zm4.018,11.371L58.159,91.054,47.569,80.462,58.16,69.872ZM51.546,69.091h3.737l-9.542,9.543L40.3,73.2A17.348,17.348,0,0,1,51.546,69.091ZM34.081,86.553A17.3,17.3,0,0,1,38.454,75l5.458,5.459L34.081,90.3V86.553Zm0,8.921L43.91,105.3l-9.829,9.829V95.474Zm0,28.475v-3.633l9.827,9.827L38.5,135.552A17.3,17.3,0,0,1,34.081,123.949Zm17.464,17.462a17.357,17.357,0,0,1-11.188-4.059l5.38-5.379,9.438,9.439Zm-3.98-11.267,10.593-10.593,10.593,10.593L58.161,140.739Zm17.167,11.267H61.145l9.435-9.438,5.36,5.36A17.346,17.346,0,0,1,64.732,141.411Zm13.061-5.881-5.385-5.386,4.1-4.1-1.828-1.828-4.1,4.1L59.987,117.723l10.591-10.591,6.809,6.81a18.694,18.694,0,0,0-.085,3.58,56.405,56.405,0,0,0,3.259,13.8A17.365,17.365,0,0,1,77.794,135.53Zm38.276-3.966c-1.863,4.492-4.931,9.846-8.964,9.846-1.633,0-3.258-1.129-5.061-2.494a3.678,3.678,0,0,0-4.4-.052c-1.7,1.232-3.659,2.546-5.412,2.546-4.036,0-7.022-5.368-8.816-9.872a54.063,54.063,0,0,1-3.533-14.2,15.5,15.5,0,0,1,3.577-11.193,11.671,11.671,0,0,1,9.777-4.265,11.282,11.282,0,0,1,4.856,1.529,3.326,3.326,0,0,0,.442.214v3.471h2.586V103.62a3.454,3.454,0,0,0,.442-.214,11.279,11.279,0,0,1,4.855-1.529,11.66,11.66,0,0,1,9.777,4.265,15.5,15.5,0,0,1,3.577,11.193A52.435,52.435,0,0,1,116.07,131.564Zm3.316-1.424c.539-1.507,1.031-3.079,1.455-4.634a35.389,35.389,0,0,0-13.628-67.455V54.327a39.113,39.113,0,0,1,12.173,75.813Z"/><path class="a" d="M344.5,347.17a11.326,11.326,0,0,1,2.582,8.185,33.264,33.264,0,0,1-.892,5.162l2.506.607a35.769,35.769,0,0,0,.958-5.583,13.92,13.92,0,0,0-3.2-10.056Z" transform="translate(-232.043 -238.309)"/><path class="a" d="M341.369,422.1l2.382.988c.545-1.314,1.066-2.756,1.548-4.288l-2.459-.775C342.38,419.487,341.885,420.858,341.369,422.1Z" transform="translate(-229.727 -292.074)"/><path class="a" d="M421.644,104.7h2.579V101.5h3.195V98.926h-3.195V95.731h-2.579v3.195h-3.195V101.5h3.195Z" transform="translate(-286.834 -53.177)"/><path class="a" d="M247.478,184.941h2.579v-3.195h3.195v-2.579h-3.195v-3.194h-2.579v3.194h-3.195v2.579h3.195Z" transform="translate(-157.744 -112.662)"/><path class="a" d="M288.652,67.542h2.579V64.347h3.194V61.769H291.23V58.574h-2.579v3.195h-3.195v2.579h3.195Z" transform="translate(-188.267 -25.66)"/></g></svg>