<svg xmlns="http://www.w3.org/2000/svg" width="120" height="120" viewBox="0 0 120 120"><defs><style>.a{fill:#d14a3b;}</style></defs><g transform="translate(-3.51 -3.5)"><path class="a" d="M123.509,32.444h0a1.728,1.728,0,0,0-.288-.96h0L106.7,4.652A2.449,2.449,0,0,0,104.638,3.5h-82.3a2.449,2.449,0,0,0-2.065,1.152L3.8,31.244h0a1.584,1.584,0,0,0-.288.912h0V43.34a8.927,8.927,0,0,0,4.13,7.68V121.1a2.4,2.4,0,0,0,2.4,2.4H116.978a2.4,2.4,0,0,0,2.4-2.4V51.308a8.879,8.879,0,0,0,4.13-7.632V32.492ZM23.679,8.3h79.614l13.493,21.6H10.186Zm78.558,26.4v8.784a3.792,3.792,0,0,1-3.361,4.128h-4.8c-1.969,0-2.737-.576-3.073-1.056a10.892,10.892,0,0,1-.288-3.072V34.7Zm-16.47,0v8.784a3.792,3.792,0,0,1-3.361,4.128H77.6c-2.593,0-2.881-1.056-3.169-2.064V34.7Zm-16.47,0v8.784a3.792,3.792,0,0,1-3.361,4.128h-4.8a3.792,3.792,0,0,1-3.361-4.128V34.7Zm-16.422,0v8.784a3.84,3.84,0,0,1-3.361,4.128h-4.8a3.792,3.792,0,0,1-3.361-4.128V34.7ZM36.4,38.54v4.8a4.367,4.367,0,0,1-1.585,3.408,4.8,4.8,0,0,1-1.777.72h-4.8a3.792,3.792,0,0,1-3.361-4.128V34.7H36.548ZM11.338,47.708a3.84,3.84,0,0,1-3.073-4.032V34.7H19.933v8.784a4.223,4.223,0,0,1-1.537,3.36,9.271,9.271,0,0,1-4.322.768H11.866ZM52.49,118.7H28.865V74.78H52.874Zm62.088,0H57.292l.384-46.32a2.64,2.64,0,0,0-.72-1.728,2.4,2.4,0,0,0-1.681-.672H26.464a2.4,2.4,0,0,0-2.4,2.4V118.7H12.394V52.6h4.178a7.685,7.685,0,0,0,4.8-1.872A3.218,3.218,0,0,0,21.9,50.4a7.877,7.877,0,0,0,6.05,2.208h4.8a7.4,7.4,0,0,0,4.8-1.824,3.217,3.217,0,0,0,.672-.432,8.837,8.837,0,0,0,6,2.256h4.8a6.436,6.436,0,0,0,1.921-.288,8.645,8.645,0,0,0,3.841-1.536,8.213,8.213,0,0,0,3.793,1.536,6.485,6.485,0,0,0,1.969.288h4.8a8.454,8.454,0,0,0,1.921-.288,7.252,7.252,0,0,0,3.553-1.536,8.694,8.694,0,0,0,6,1.824h4.8a8.934,8.934,0,0,0,5.666-1.68,7.733,7.733,0,0,0,3.889,1.536,12.2,12.2,0,0,0,1.969,0H100.6a9.222,9.222,0,0,0,4.274-1.488,8.885,8.885,0,0,0,2.353.96,7.157,7.157,0,0,0,3.169.72h4.178Zm4.13-75.024a3.84,3.84,0,0,1-3.121,4.032h-2.833a16.861,16.861,0,0,1-3.745-.384,4.272,4.272,0,0,1-1.969-3.744V34.7h11.668Z" transform="translate(0 0)"/><path class="a" d="M51.83,17.35H19.113A2.413,2.413,0,0,0,16.7,19.715L16.362,41.96a2.268,2.268,0,0,0,.676,1.737,2.316,2.316,0,0,0,1.737.724H51.83a2.413,2.413,0,0,0,2.413-2.413V19.763A2.413,2.413,0,0,0,51.83,17.35ZM49.417,39.789H21.236l.29-17.42H49.417Z" transform="translate(48.713 52.528)"/></g></svg>