<svg xmlns="http://www.w3.org/2000/svg" width="73.547" height="120" viewBox="0 0 73.547 120"><defs><style>.a{fill:#d14a3b;}</style></defs><g transform="translate(-13 -1)"><path class="a" d="M43.177,35A23.309,23.309,0,1,0,66.354,58.308,23.269,23.269,0,0,0,43.177,35ZM23.863,58.308a19.4,19.4,0,0,1,4.369-12.284l27.16,27.314a19.158,19.158,0,0,1-12.214,4.394A19.391,19.391,0,0,1,23.863,58.308ZM58.122,70.592,30.963,43.278a19.158,19.158,0,0,1,12.214-4.394A19.432,19.432,0,0,1,58.122,70.592Z" transform="translate(6.597 31.612)"/><path class="a" d="M82.612,59.348c-.575-11.408-7-20.771-15.42-23V22.7A28.766,28.766,0,0,0,62.346,6.692,12.785,12.785,0,0,0,44.4,3.294,9.6,9.6,0,0,0,38.161,1H26.548a9.688,9.688,0,0,0-9.677,9.677v48.69A5.6,5.6,0,0,0,13,64.674a5.8,5.8,0,0,0,.033.6l5.435,50.715A5.6,5.6,0,0,0,24.046,121h51.46a5.6,5.6,0,0,0,5.578-5.013L86.52,65.261c.015-.2.027-.393.027-.588a5.6,5.6,0,0,0-3.935-5.324Zm-3.879-.285H47.91c.714-10.835,7.349-19.355,15.412-19.355s14.7,8.52,15.412,19.355ZM59.126,8.841a24.91,24.91,0,0,1,4.2,13.858v13.14H43.967v3.871h9.087c-5.052,4.132-8.531,11.2-9.011,19.355H40.1V22.7a24.91,24.91,0,0,1,4.2-13.858,8.913,8.913,0,0,1,14.833,0Zm-22.8,11.514H28.484V16.484H36.9A29.123,29.123,0,0,0,36.326,20.355Zm-.1,15.484H28.484V31.967h7.742Zm0,15.484H28.484V47.451h7.742ZM26.548,4.871H38.161a5.757,5.757,0,0,1,3.426,1.144c-.172.225-.356.439-.515.677a28.841,28.841,0,0,0-3.019,5.921H28.484a3.875,3.875,0,0,0-3.871,3.871v3.871a3.875,3.875,0,0,0,3.871,3.871h7.742V28.1H28.484a3.875,3.875,0,0,0-3.871,3.871v3.871a3.875,3.875,0,0,0,3.871,3.871h7.742V43.58H28.484a3.875,3.875,0,0,0-3.871,3.871v3.871a3.875,3.875,0,0,0,3.871,3.871h7.742v3.871H20.742V10.677A5.813,5.813,0,0,1,26.548,4.871ZM82.667,64.858l-5.435,50.715a1.734,1.734,0,0,1-1.728,1.554H24.044a1.737,1.737,0,0,1-1.73-1.554l-5.431-50.7a1.664,1.664,0,0,1-.012-.2,1.74,1.74,0,0,1,1.738-1.738H80.936a1.741,1.741,0,0,1,1.74,1.738,1.77,1.77,0,0,1-.01.186Z" transform="translate(0)"/><path class="a" d="M29,11H44.539v3.885H29Z" transform="translate(14.938 9.424)"/><path class="a" d="M29,15H44.539v3.885H29Z" transform="translate(14.938 13.093)"/><path class="a" d="M35,25h3.885v3.885H35Z" transform="translate(20.572 22.445)"/><path class="a" d="M41,27h3.885v3.885H41Z" transform="translate(26.182 24.316)"/><path class="a" d="M39,23h3.885v3.885H39Z" transform="translate(24.312 20.575)"/></g></svg>