<svg xmlns="http://www.w3.org/2000/svg" width="87" height="120" viewBox="0 0 87 120"><defs><style>.a{fill:#d14a3b;}</style></defs><g transform="translate(-53.198)"><g transform="translate(53.198 0)"><g transform="translate(0 0)"><path class="a" d="M122.5,35.056h-2.562V25.618a13.477,13.477,0,0,0,8.3-12.257v-.123A13.153,13.153,0,0,0,115.061,0H78.578A13.181,13.181,0,0,0,65.4,13.361a13.233,13.233,0,0,0,8.3,12.257v9.561H71.013A17.876,17.876,0,0,0,53.2,53.075V102.1A17.876,17.876,0,0,0,71.013,120h51.369A17.876,17.876,0,0,0,140.2,102.1V53.075A17.8,17.8,0,0,0,122.5,35.056ZM78.578,3.922h36.361a9.04,9.04,0,0,1,8.907,7.354H69.67A9.161,9.161,0,0,1,78.578,3.922Zm-8.907,11.4h54.176a9.153,9.153,0,0,1-8.907,7.232H78.578A9.256,9.256,0,0,1,69.67,15.322Zm46.367,11.154v8.58H77.724v-8.58h38.314Zm6.467,89.356H71.013a13.884,13.884,0,0,1-13.788-13.851V52.952A13.884,13.884,0,0,1,71.013,39.1h51.369A13.884,13.884,0,0,1,136.17,52.952v49.03h.122A13.884,13.884,0,0,1,122.5,115.832Z" transform="translate(-53.198 0)"/><path class="a" d="M176.369,204.893a35.106,35.106,0,0,0-5.914-.493c-5.544,0-13.182,1.232-17.741,6.9-3.819,4.682-4.928,11.581-3.08,20.328,0,.123,0,.123.123.246,0,.123,0,.123.123.246.123.246.246.37.37.616a2.694,2.694,0,0,0,.616.37c.123,0,.123,0,.246.123.123,0,.123.123.246.123a36.445,36.445,0,0,0,7.762.862c6.406,0,11.334-2.094,14.661-6.037,6.653-8.008,4.435-20.944,4.312-21.56A2.675,2.675,0,0,0,176.369,204.893Zm-5.79,20.575c-2.587,3.08-6.406,4.558-11.581,4.558a25.937,25.937,0,0,1-3.08-.246l9.363-9.363a2,2,0,0,0-2.834-2.834l-9.363,9.363c-.616-5.667.37-10.1,2.834-13.182,3.7-4.435,9.979-5.421,14.661-5.421a27.516,27.516,0,0,1,3.7.246C174.521,212.038,174.891,220.293,170.579,225.467Z" transform="translate(-119.755 -141.87)"/><path class="a" d="M138.363,166.8a26.365,26.365,0,1,0,26.365,26.365A26.395,26.395,0,0,0,138.363,166.8Zm0,48.541a22.3,22.3,0,1,1,22.3-22.3A22.294,22.294,0,0,1,138.363,215.341Z" transform="translate(-94.323 -116.039)"/></g></g></g></svg>